<svg width="11" height="12" viewBox="0 0 11 12" fill="none" xmlns="http://www.w3.org/2000/svg"><path d="M5.5 10.5c2.278 0 4.125-2.015 4.125-4.5S7.778 1.5 5.5 1.5 1.375 3.515 1.375 6s1.847 4.5 4.125 4.5Z" stroke="#fff" stroke-linecap="round" stroke-linejoin="round"/><path d="M6.646 4.5a1.49 1.49 0 0 0-.823-.478 1.32 1.32 0 0 0-.898.155c-.282.158-.52.415-.688.738-.167.323-.256.7-.256 1.085s.089.762.256 1.085c.168.323.406.58.688.738.281.158.593.212.898.155a1.49 1.49 0 0 0 .823-.478" stroke="#fff" stroke-linecap="round" stroke-linejoin="round"/></svg><svg width="162" height="23" viewBox="0 0 162 23" fill="none" xmlns="http://www.w3.org/2000/svg"><path d="M36.367 1.438a.491.491 0 0 1-.177.328.525.525 0 0 1-.342.123h-.096a2.138 2.138 0 0 0-.315-.014 5.2 5.2 0 0 0-.67.055c-.264.036-.56.114-.888.232-.32.11-.656.274-1.012.492a4.994 4.994 0 0 0-1.025.889c-.337.365-.656.82-.957 1.367-.301.538-.556 1.19-.766 1.955-.11.383-.237.934-.383 1.655-.136.71-.287 1.513-.45 2.406-.156.893-.315 1.845-.48 2.857a853.056 853.056 0 0 0-.45 2.98 418.6 418.6 0 0 0-.383 2.79c-.119.875-.21 1.627-.274 2.256a.556.556 0 0 1-.164.314.389.389 0 0 1-.314.15.623.623 0 0 1-.342-.095.505.505 0 0 1-.192-.287 37.771 37.771 0 0 0-.56-1.819 159.32 159.32 0 0 0-.889-2.611 168.56 168.56 0 0 0-1.08-3.104 425.277 425.277 0 0 0-1.176-3.24 210.54 210.54 0 0 0-1.12-3.076c-.356-.984-.67-1.85-.944-2.598-.046.51-.119 1.08-.219 1.71-.09.62-.219 1.29-.383 2.01a32.316 32.316 0 0 1-1.435 4.743c-.51 1.313-1.112 2.434-1.805 3.364-.683.93-1.404 1.704-2.16 2.324a10.945 10.945 0 0 1-2.31 1.476c-.775.356-1.504.625-2.188.807-.684.182-1.299.296-1.846.342-.547.054-.966.082-1.258.082-1.002 0-1.927-.132-2.775-.397-.838-.264-1.568-.638-2.187-1.12a5.397 5.397 0 0 1-1.436-1.75 5.028 5.028 0 0 1-.506-2.257c0-.738.164-1.426.492-2.064a5.577 5.577 0 0 1 1.34-1.682 6.645 6.645 0 0 1 1.928-1.12 6.41 6.41 0 0 1 2.27-.411 7.18 7.18 0 0 1 1.736.191 6.3 6.3 0 0 1 1.367.493 5.1 5.1 0 0 1 1.025.629c.292.227.529.446.711.656.192.2.333.373.424.52l.178.259a.517.517 0 0 1-.096.602.456.456 0 0 1-.369.164c-.2 0-.35-.091-.451-.274-.01-.027-.1-.155-.274-.383-.164-.237-.423-.492-.779-.765-.346-.274-.797-.52-1.353-.739-.556-.227-1.23-.341-2.024-.341a5.672 5.672 0 0 0-3.527 1.23 4.596 4.596 0 0 0-1.149 1.367 3.491 3.491 0 0 0-.423 1.696 3.7 3.7 0 0 0 .464 1.832 4.51 4.51 0 0 0 1.258 1.408 6.323 6.323 0 0 0 1.86.916c.71.21 1.467.314 2.27.314.309 0 .72-.022 1.23-.068.51-.046 1.08-.15 1.709-.314a11.63 11.63 0 0 0 2.01-.739 9.942 9.942 0 0 0 2.078-1.367c.683-.574 1.335-1.29 1.955-2.146.628-.857 1.18-1.896 1.654-3.118a27.853 27.853 0 0 0 1.148-3.582c.283-1.139.492-2.164.63-3.076.136-.911.218-1.686.245-2.324.037-.647.055-1.107.055-1.38v-.274c0-.146.046-.27.137-.37a.495.495 0 0 1 .383-.163c.227 0 .387.113.478.341.027.064.105.278.232.643.137.364.31.838.52 1.422.219.574.465 1.24.738 1.996.283.756.579 1.563.889 2.42a501.345 501.345 0 0 1 1.914 5.332c.319.884.62 1.736.902 2.556.283.82.538 1.568.766 2.243.1-.73.21-1.5.328-2.31.119-.821.242-1.646.37-2.476.136-.838.268-1.658.396-2.46a208.4 208.4 0 0 1 .396-2.256l.37-1.887a20.47 20.47 0 0 1 .3-1.34c.2-.802.488-1.55.861-2.242a7.467 7.467 0 0 1 1.354-1.832 6.012 6.012 0 0 1 1.832-1.217c.693-.3 1.458-.451 2.297-.451.319 0 .547.036.683.11.146.072.22.214.22.423v.069Zm-2.037 9.83c0 .346-.123.642-.37.888a1.189 1.189 0 0 1-.874.356c-.346 0-.643-.119-.889-.356a1.235 1.235 0 0 1-.355-.888c0-.174.032-.333.096-.479a1.17 1.17 0 0 1 .26-.396c.118-.119.25-.21.396-.274a1.28 1.28 0 0 1 .97 0 1.1 1.1 0 0 1 .397.274c.118.109.21.241.273.396.064.146.096.305.096.479Zm-2.215 8.011c0-1.312.082-2.62.246-3.924a.566.566 0 0 1 .164-.328c.1-.1.228-.15.383-.15a.43.43 0 0 1 .342.164c.091.1.137.219.137.355 0 .055-.014.22-.041.493-.018.273-.046.601-.082.984-.028.374-.055.775-.082 1.203-.019.42-.028.807-.028 1.162 0 .483.046.875.137 1.176.1.292.223.52.37.684.154.164.314.273.478.328.173.055.337.082.492.082.255 0 .52-.091.793-.274.273-.182.551-.437.834-.765a9.46 9.46 0 0 0 .875-1.176c.291-.465.579-.98.861-1.545a.465.465 0 0 1 .191-.205.482.482 0 0 1 .274-.082.44.44 0 0 1 .355.164c.1.11.15.228.15.355a.462.462 0 0 1-.054.233c-.11.21-.246.465-.41.765a13.281 13.281 0 0 1-1.258 1.887c-.246.31-.51.593-.793.848a4.243 4.243 0 0 1-.889.601 2.09 2.09 0 0 1-.943.233c-.41 0-.77-.087-1.08-.26a2.52 2.52 0 0 1-.793-.697 3.225 3.225 0 0 1-.478-1.026c-.1-.4-.15-.829-.15-1.285Zm1.45-8.011a.428.428 0 0 0-.15-.329.428.428 0 0 0-.33-.15.428.428 0 0 0-.327.15.448.448 0 0 0-.137.329c0 .127.046.237.137.328.091.09.2.136.328.136a.448.448 0 0 0 .328-.136c.1-.091.15-.2.15-.328Zm7.86 9.05c.156.347.41.625.766.834.356.2.757.301 1.203.301.137 0 .36-.018.67-.055.31-.045.666-.182 1.067-.41.41-.237.843-.606 1.299-1.107.455-.501.898-1.208 1.326-2.12.045-.1.11-.172.191-.218a.482.482 0 0 1 .274-.082c.155 0 .278.055.369.164.1.11.15.228.15.355a.629.629 0 0 1-.055.22 10.93 10.93 0 0 1-1.066 1.79 7.8 7.8 0 0 1-1.271 1.34 5.353 5.353 0 0 1-1.436.834c-.492.2-.998.3-1.517.3-.41 0-.798-.063-1.163-.19a3.251 3.251 0 0 1-.93-.506 2.862 2.862 0 0 1-.614-.725 1.755 1.755 0 0 1-.22-.834c0-.037.005-.087.014-.15a.676.676 0 0 1 .069-.206.816.816 0 0 1 .177-.218.93.93 0 0 1 .329-.178 6.32 6.32 0 0 0 1.025-.396 4.01 4.01 0 0 0 .82-.547c.228-.2.406-.42.533-.657.128-.246.192-.51.192-.793a.79.79 0 0 0-.246-.601.843.843 0 0 0-.602-.233c-.246 0-.487.087-.724.26-.237.164-.47.388-.698.67a6.694 6.694 0 0 0-.629.957c-.2.356-.387.73-.56 1.121-.164.392-.31.784-.438 1.176a14.54 14.54 0 0 0-.314 1.066c-.027.1-.06.21-.096.329a1.042 1.042 0 0 1-.136.328.807.807 0 0 1-.233.26.552.552 0 0 1-.355.109.581.581 0 0 1-.397-.178c-.127-.11-.191-.3-.191-.574v-.629c.009-.365.018-.838.027-1.422.01-.592.018-1.267.028-2.023.018-.766.031-1.573.04-2.42.01-.857.023-1.737.041-2.639.019-.902.032-1.782.041-2.639l.028-2.433a217.185 217.185 0 0 0 .055-3.514c.009-.383.013-.61.013-.683a.44.44 0 0 1 .164-.356.52.52 0 0 1 .356-.15c.146 0 .269.05.369.15.1.091.15.214.15.37l-.013.546c0 .337-.005.793-.014 1.367-.01.575-.023 1.244-.041 2.01-.01.766-.023 1.581-.041 2.447-.01.857-.023 1.741-.041 2.653-.01.911-.023 1.8-.041 2.666a2255.425 2255.425 0 0 1-.055 4.552c.146-.464.333-.952.56-1.462.229-.52.498-.998.807-1.436.31-.438.657-.797 1.04-1.08a2.171 2.171 0 0 1 1.298-.424c.265 0 .51.05.739.15.227.092.423.224.587.397.174.164.306.36.397.588.1.228.15.474.15.738 0 .41-.09.788-.273 1.135a3.455 3.455 0 0 1-.725.916c-.3.264-.647.497-1.039.697-.383.2-.78.365-1.19.492Zm16.913-2.133-.233.465a9.307 9.307 0 0 1-.437.793c-.173.301-.378.616-.615.944a6.25 6.25 0 0 1-.793.902 4.522 4.522 0 0 1-.944.684c-.337.173-.692.26-1.066.26-.529 0-.975-.17-1.34-.506a2.968 2.968 0 0 1-.78-1.272 4.07 4.07 0 0 1-1.107 1.244c-.428.301-.856.451-1.285.451-.337 0-.642-.059-.916-.177a2.086 2.086 0 0 1-.697-.52 2.604 2.604 0 0 1-.451-.793 3.1 3.1 0 0 1-.15-.984c0-.711.118-1.335.355-1.873a4.415 4.415 0 0 1 .93-1.367 3.83 3.83 0 0 1 1.23-.82 3.53 3.53 0 0 1 1.313-.274c.282 0 .542.04.779.123.237.073.437.155.601.246.174.091.306.178.397.26.091.073.141.114.15.123.1.118.15.241.15.369 0 .137-.05.26-.15.369-.1.1-.219.15-.355.15a.502.502 0 0 1-.37-.15 1.194 1.194 0 0 0-.122-.096 1.288 1.288 0 0 0-.26-.164c-.11-.054-.242-.1-.397-.136a1.7 1.7 0 0 0-.505-.069 2.43 2.43 0 0 0-.903.192c-.319.127-.61.328-.875.601a3.316 3.316 0 0 0-.67 1.012c-.173.4-.26.88-.26 1.435 0 .174.019.351.055.534.037.173.1.332.192.478.09.146.214.265.369.356.155.09.346.136.574.136.164 0 .35-.054.56-.164.22-.11.424-.278.616-.506.2-.227.378-.515.533-.86.164-.347.278-.757.342-1.231a.481.481 0 0 1 .178-.315.51.51 0 0 1 .355-.137c.128 0 .237.05.328.15.1.101.155.215.164.343.01.173.027.419.055.738.027.31.086.62.177.93.1.31.247.578.438.806.192.228.456.342.793.342.219 0 .433-.06.643-.178a2.94 2.94 0 0 0 .629-.465c.21-.2.405-.423.587-.67a9.45 9.45 0 0 0 .52-.765c.155-.255.292-.501.41-.738.119-.237.219-.442.3-.616.046-.1.11-.177.192-.232a.55.55 0 0 1 .287-.082c.155 0 .278.06.37.178.1.109.15.227.15.355a.483.483 0 0 1-.041.192Zm.137 2.653c.145-.31.314-.643.505-.998.192-.365.397-.734.616-1.108.219-.382.45-.76.697-1.134.246-.374.501-.725.766-1.053.264-.32.528-.547.793-.684.273-.146.528-.218.765-.218s.442.05.615.15c.183.091.328.219.438.383.118.164.205.355.26.574.063.219.095.456.095.71 0 .21-.022.493-.068.849-.036.346-.055.71-.055 1.093a8 8 0 0 0 .028.657c.027.21.068.4.123.574.064.164.155.3.273.41.119.1.274.15.465.15.219 0 .438-.059.656-.177.219-.128.433-.292.643-.493.21-.21.41-.437.601-.683a11.2 11.2 0 0 0 .52-.752 12.211 12.211 0 0 0 .697-1.313.484.484 0 0 1 .479-.314c.155 0 .278.055.369.164.091.11.137.228.137.355a.515.515 0 0 1-.041.206c-.037.073-.11.223-.22.45-.1.229-.24.493-.423.794-.173.3-.378.615-.615.943a6.894 6.894 0 0 1-.793.916 4.218 4.218 0 0 1-.93.684c-.328.173-.674.26-1.039.26-.42 0-.756-.087-1.012-.26a1.969 1.969 0 0 1-.601-.684 3.17 3.17 0 0 1-.287-.916 7.36 7.36 0 0 1-.069-.984c0-.164.005-.338.014-.52.018-.191.036-.378.055-.56.018-.183.032-.351.04-.506.019-.164.028-.301.028-.41 0-.283-.041-.474-.123-.575-.073-.1-.16-.15-.26-.15-.146 0-.314.087-.506.26a4.896 4.896 0 0 0-.588.656c-.2.273-.405.583-.615.93-.2.337-.396.674-.588 1.011-.191.338-.364.661-.52.971-.154.3-.282.552-.382.752-.191.383-.387.638-.588.766-.191.136-.364.205-.52.205a.757.757 0 0 1-.656-.328 1.49 1.49 0 0 1-.219-.82v-5.784c.01-1.568.032-3.021.069-4.361.046-1.35.114-2.566.205-3.65.1-1.094.246-2.024.438-2.79.19-.774.432-1.371.724-1.79.3-.42.675-.63 1.121-.63.383 0 .707.105.97.315.265.21.48.497.643.861.165.356.283.775.356 1.258.073.474.11.975.11 1.504 0 1.075-.1 2.133-.301 3.172a22.592 22.592 0 0 1-.78 3.021 26.98 26.98 0 0 1-1.148 2.885 50.63 50.63 0 0 1-1.381 2.72v2.393l.014.643Zm0-5.045c.382-.839.729-1.654 1.039-2.447.319-.802.588-1.6.806-2.393.228-.793.406-1.595.533-2.406.128-.82.192-1.673.192-2.557 0-.146-.01-.378-.027-.697a5.146 5.146 0 0 0-.123-.97 2.68 2.68 0 0 0-.315-.862c-.137-.246-.333-.37-.588-.37-.2 0-.373.138-.52.41-.145.265-.273.63-.382 1.095-.11.455-.2.989-.274 1.6-.073.61-.132 1.257-.177 1.94a73.46 73.46 0 0 0-.11 2.106 176.174 176.174 0 0 0-.054 4.006v1.545ZM88.17 2.163c0 .318-.087.633-.26.942a3.72 3.72 0 0 1-.67.862 5.744 5.744 0 0 1-.93.724c-.337.21-.674.383-1.011.52-.091.383-.164.811-.219 1.285a18.61 18.61 0 0 0-.11 1.559 77.7 77.7 0 0 1-.081 2.119 39.66 39.66 0 0 1-.164 2.092 343.89 343.89 0 0 1 2.42-.082 209.03 209.03 0 0 1 2.748-.096c.957-.027 1.936-.05 2.939-.068 1.012-.019 2.019-.028 3.022-.028.072-1.458.232-2.752.478-3.883.246-1.13.565-2.082.957-2.857.401-.775.87-1.363 1.408-1.764a2.925 2.925 0 0 1 2.188-.574c.164.018.323.055.478.11a.996.996 0 0 1 .397.218.472.472 0 0 1 .164.383.705.705 0 0 1-.014.137.443.443 0 0 1-.055.123c-.1.164-.237.246-.41.246a.479.479 0 0 1-.177-.027.47.47 0 0 0-.151-.069.883.883 0 0 0-.219-.068 1.387 1.387 0 0 0-.382-.041c-.137 0-.315.027-.534.082-.21.045-.437.16-.683.342-.246.182-.502.45-.766.806-.255.347-.496.82-.724 1.422-.22.593-.415 1.33-.588 2.215-.164.884-.274 1.95-.328 3.2.601.008 1.194.017 1.777.027.583.009 1.157.022 1.723.04.155 0 .273.055.355.165a.53.53 0 0 1 .137.369c0 .146-.05.264-.151.355a.509.509 0 0 1-.355.137h-.574a104.999 104.999 0 0 0-1.64-.055 53.08 53.08 0 0 0-1.3-.013 7.02 7.02 0 0 0-.013.437v.451c0 1.003.036 1.9.109 2.694a29.2 29.2 0 0 0 .287 2.105c.118.61.246 1.135.383 1.572.137.429.264.784.383 1.067.118.273.214.478.287.615l.123.191a.513.513 0 0 1 .095.301c0 .137-.05.255-.15.356a.481.481 0 0 1-.369.164.473.473 0 0 1-.41-.219 29.72 29.72 0 0 1-.315-.533c-.182-.328-.382-.843-.601-1.545-.219-.711-.42-1.618-.602-2.72-.173-1.113-.26-2.462-.26-4.048v-.888c-1.011 0-2.028.009-3.048.027a241.863 241.863 0 0 0-5.743.164c-.874.027-1.681.055-2.42.082a20.573 20.573 0 0 1-.806 3.582c-.356 1.121-.87 2.105-1.545 2.953-.665.839-1.518 1.504-2.557 1.996-1.039.483-2.32.725-3.841.725-.803 0-1.582-.087-2.338-.26a10.068 10.068 0 0 1-2.092-.697 8.518 8.518 0 0 1-1.75-1.108 6.12 6.12 0 0 1-1.272-1.408.51.51 0 0 1 .684-.725.422.422 0 0 1 .191.165c.283.446.647.852 1.094 1.216.456.365.97.68 1.545.944a9.04 9.04 0 0 0 1.86.615 9.874 9.874 0 0 0 2.091.219c1.34 0 2.466-.21 3.377-.63.912-.427 1.654-1.01 2.229-1.75.583-.737 1.03-1.599 1.34-2.583.319-.994.555-2.06.71-3.2a1428.91 1428.91 0 0 0-2.87.151.66.66 0 0 1-.383-.123.455.455 0 0 1-.165-.37c0-.145.041-.268.124-.368.09-.1.21-.16.355-.178l.848-.041 2.214-.11c.073-.701.128-1.408.165-2.118.045-.72.086-1.445.123-2.174.018-.465.05-.912.095-1.34.055-.438.119-.834.192-1.19-.21.046-.447.087-.711.123a7.18 7.18 0 0 1-.766.041c-.802 0-1.59-.063-2.365-.191a114.51 114.51 0 0 1-2.338-.41 63.141 63.141 0 0 0-2.352-.424 14.952 14.952 0 0 0-2.406-.191 7.93 7.93 0 0 0-1.9.218 4.644 4.644 0 0 0-1.531.643c-.438.292-.784.66-1.04 1.107-.246.438-.369.957-.369 1.559 0 .383.069.72.206 1.012.136.291.291.537.464.738.173.2.338.36.492.479.165.109.27.177.315.205a.537.537 0 0 1 .246.45.529.529 0 0 1-.137.37.464.464 0 0 1-.341.137.695.695 0 0 1-.192-.028 2.24 2.24 0 0 1-.15-.082 4.72 4.72 0 0 1-.656-.492 3.982 3.982 0 0 1-.63-.71 4.363 4.363 0 0 1-.478-.944 3.485 3.485 0 0 1-.178-1.135c0-.802.174-1.49.52-2.064a4.38 4.38 0 0 1 1.38-1.422 6.052 6.052 0 0 1 1.887-.82 8.76 8.76 0 0 1 2.106-.26c.793 0 1.577.068 2.352.205.783.127 1.567.269 2.351.423.784.155 1.568.301 2.352.438a15.207 15.207 0 0 0 3.308.164c.264-.027.515-.077.752-.15a8.253 8.253 0 0 1 .56-1.477 5 5 0 0 1 .684-1.025c.246-.274.493-.474.739-.602.246-.127.483-.191.71-.191.301 0 .552.09.753.273.21.182.314.42.314.711Zm-1.135-.015c-.073 0-.173.041-.3.123-.12.073-.251.192-.397.356a3.431 3.431 0 0 0-.438.602 4.351 4.351 0 0 0-.382.875c.3-.137.565-.315.793-.534.227-.218.41-.433.546-.642.137-.219.224-.401.26-.547.037-.155.01-.233-.082-.233Zm24.623 16.038-.232.464c-.11.228-.255.493-.438.793-.173.301-.378.616-.615.944a6.233 6.233 0 0 1-.793.902 4.532 4.532 0 0 1-.943.684 2.31 2.31 0 0 1-1.067.26c-.528 0-.975-.17-1.34-.506a2.972 2.972 0 0 1-.779-1.272c-.31.52-.679.934-1.107 1.244-.429.301-.857.451-1.285.451-.338 0-.643-.059-.916-.177a2.09 2.09 0 0 1-.698-.52 2.625 2.625 0 0 1-.451-.793 3.1 3.1 0 0 1-.15-.984c0-.711.118-1.335.355-1.873a4.409 4.409 0 0 1 .93-1.367 3.838 3.838 0 0 1 1.23-.82 3.534 3.534 0 0 1 1.313-.274c.282 0 .542.04.779.123.237.073.438.155.602.246.173.091.305.178.396.26l.151.123c.1.118.15.241.15.369 0 .137-.05.26-.15.369a.488.488 0 0 1-.356.15.5.5 0 0 1-.369-.15 1.144 1.144 0 0 0-.123-.096 1.277 1.277 0 0 0-.26-.164 1.814 1.814 0 0 0-.396-.136 1.704 1.704 0 0 0-.506-.069c-.283 0-.583.064-.902.192a2.51 2.51 0 0 0-.876.601 3.315 3.315 0 0 0-.669 1.012c-.174.4-.26.88-.26 1.435 0 .174.018.351.055.534.036.173.1.332.191.478.091.146.214.265.369.356.155.09.346.136.574.136.164 0 .351-.054.561-.164a1.95 1.95 0 0 0 .615-.506 3.38 3.38 0 0 0 .533-.86c.164-.347.278-.757.342-1.231a.481.481 0 0 1 .178-.315.51.51 0 0 1 .355-.137c.128 0 .237.05.328.15a.526.526 0 0 1 .164.343c.01.173.028.419.055.738.027.31.087.62.178.93.1.31.246.578.437.806.192.228.456.342.793.342.219 0 .433-.06.643-.178.219-.118.428-.273.629-.465.209-.2.405-.423.588-.67a10.107 10.107 0 0 0 .929-1.504c.119-.236.219-.441.301-.615.046-.1.11-.177.192-.232a.547.547 0 0 1 .287-.082.44.44 0 0 1 .369.178c.1.109.15.227.15.355a.471.471 0 0 1-.041.192Zm.492-1.805a7.34 7.34 0 0 1-.136.697c-.055.21-.11.397-.164.56a7.425 7.425 0 0 1-.123.383.934.934 0 0 1-.069.165.483.483 0 0 1-.478.314.546.546 0 0 1-.356-.137.483.483 0 0 1-.164-.369c0-.055.009-.096.028-.123.018-.027.045-.082.082-.164a3.46 3.46 0 0 0 .136-.41c.055-.192.123-.488.205-.889-.155 0-.314-.004-.478-.014a1.414 1.414 0 0 1-.451-.095.787.787 0 0 1-.356-.26c-.091-.118-.137-.283-.137-.492 0-.155.046-.365.137-.629.082-.264.196-.524.342-.78.146-.255.31-.473.492-.656.182-.191.365-.287.547-.287.21 0 .378.078.506.233.137.155.241.346.314.574.073.219.123.451.151.697.036.246.054.46.054.643h.452c.155-.01.3-.014.437-.014.52 0 .916.114 1.19.342.273.228.41.601.41 1.121 0 .21-.014.428-.041.656-.028.228-.06.465-.096.711-.036.237-.068.474-.096.711a6.16 6.16 0 0 0-.041.697c0 .329.046.602.137.82.091.21.205.379.342.507.136.127.282.218.437.273.155.046.297.068.424.068.392 0 .761-.127 1.108-.382.346-.256.665-.561.957-.916.291-.365.551-.748.779-1.149.237-.4.433-.752.588-1.053a.478.478 0 0 1 .191-.191.528.528 0 0 1 .26-.068.47.47 0 0 1 .383.164c.091.1.136.214.136.341a.549.549 0 0 1-.054.247c-.21.373-.456.797-.739 1.271a8.78 8.78 0 0 1-.943 1.313 5.42 5.42 0 0 1-1.203 1.039 2.618 2.618 0 0 1-1.449.423 2.29 2.29 0 0 1-.93-.191 2.196 2.196 0 0 1-.766-.52 2.756 2.756 0 0 1-.505-.86 3.333 3.333 0 0 1-.192-1.163c0-.456.046-.907.137-1.354a6.63 6.63 0 0 0 .137-1.298c0-.174-.041-.301-.123-.383-.073-.091-.242-.137-.506-.137h-.424a9.1 9.1 0 0 0-.479.014Zm-.916-1.012a2.82 2.82 0 0 0-.013-.246c0-.11-.009-.214-.028-.314a1.012 1.012 0 0 0-.054-.26c-.019-.073-.041-.11-.069-.11-.027 0-.063.037-.109.11a2.742 2.742 0 0 0-.123.246 2.182 2.182 0 0 0-.123.3 3.55 3.55 0 0 0-.082.274h.601Zm10.213-4.101c0 .346-.123.642-.369.888a1.19 1.19 0 0 1-.875.356c-.346 0-.642-.119-.889-.356a1.234 1.234 0 0 1-.355-.888c0-.174.032-.333.096-.479a1.19 1.19 0 0 1 .259-.396c.119-.119.251-.21.397-.274a1.28 1.28 0 0 1 .971 0c.155.064.287.155.396.274a1.194 1.194 0 0 1 .369.875Zm-2.215 8.011c0-1.312.082-2.62.247-3.924a.56.56 0 0 1 .164-.328c.1-.1.227-.15.382-.15.137 0 .251.055.342.164.091.1.137.219.137.355 0 .055-.014.22-.041.493-.018.273-.046.601-.082.984a130.2 130.2 0 0 0-.082 1.203c-.018.42-.028.807-.028 1.162 0 .483.046.875.137 1.176.1.292.224.52.369.684.155.164.315.273.479.328.173.055.337.082.492.082.255 0 .52-.091.793-.274.273-.182.551-.437.834-.765.292-.328.583-.72.875-1.176.292-.465.579-.98.861-1.545a.468.468 0 0 1 .192-.205.481.481 0 0 1 .273-.082c.146 0 .264.055.356.164.1.11.15.228.15.355a.456.456 0 0 1-.055.233c-.109.21-.246.465-.41.765a12.587 12.587 0 0 1-1.258 1.887c-.246.31-.51.593-.793.848a4.224 4.224 0 0 1-.888.601c-.31.155-.625.233-.944.233-.41 0-.77-.087-1.08-.26a2.521 2.521 0 0 1-.793-.697 3.229 3.229 0 0 1-.478-1.026c-.1-.4-.151-.829-.151-1.285Zm1.45-8.011a.426.426 0 0 0-.151-.329.427.427 0 0 0-.328-.15.429.429 0 0 0-.328.15.448.448 0 0 0-.137.329c0 .127.046.237.137.328a.448.448 0 0 0 .328.136.447.447 0 0 0 .328-.136.426.426 0 0 0 .151-.328ZM141.941.808c.219 0 .411.096.575.288.164.191.246.428.246.71 0 .383-.155.812-.465 1.286-.301.465-.738.952-1.313 1.463-.1.51-.186 1.093-.259 1.75-.073.647-.11 1.385-.11 2.215 0 1.276-.041 2.52-.123 3.732a24.15 24.15 0 0 1-.465 3.418 13.59 13.59 0 0 1-.97 2.94 7.527 7.527 0 0 1-1.627 2.31c-.666.638-1.477 1.135-2.434 1.49-.957.365-2.092.547-3.404.547-1.094 0-2.069-.128-2.926-.383-.857-.255-1.586-.606-2.187-1.053a4.883 4.883 0 0 1-1.368-1.585 4.316 4.316 0 0 1-.465-1.983c0-.71.151-1.367.452-1.969.3-.61.706-1.139 1.216-1.586a5.638 5.638 0 0 1 1.778-1.066 6.161 6.161 0 0 1 2.529-.37c.128 0 .242.02.342.056.1.027.182.082.246.164.073.073.109.177.109.314a.48.48 0 0 1-.164.37.509.509 0 0 1-.355.136h-.274a2.321 2.321 0 0 0-.259-.014c-.62 0-1.208.1-1.764.301-.556.2-1.044.479-1.463.834a4.04 4.04 0 0 0-.998 1.258 3.414 3.414 0 0 0-.369 1.572c0 .501.091.948.273 1.34.183.392.429.738.739 1.039.309.292.665.542 1.066.752.41.21.839.378 1.285.506.447.127.898.223 1.354.287.465.055.907.082 1.326.082 1.157 0 2.155-.164 2.994-.492.839-.328 1.545-.789 2.119-1.381a6.884 6.884 0 0 0 1.408-2.12c.356-.829.634-1.74.834-2.734.201-1.002.333-2.069.397-3.199.073-1.14.114-2.315.123-3.527.009-.583.032-1.153.068-1.71a20.92 20.92 0 0 1 .151-1.53 15.08 15.08 0 0 1-1.204.56c-.437.182-.879.374-1.326.574a16.6 16.6 0 0 0-1.285.63 6.288 6.288 0 0 0-1.121.738 3.464 3.464 0 0 0-.779.902 2.151 2.151 0 0 0-.287 1.107c0 .374.063.702.191.985.128.273.287.506.479.697.191.191.401.35.628.479.228.118.438.214.629.287.201.063.37.114.506.15.146.027.228.041.246.041.155.046.26.11.315.191a.447.447 0 0 1 .082.274.548.548 0 0 1-.137.383.464.464 0 0 1-.342.136h-.123a.45.45 0 0 1-.109-.027 6.614 6.614 0 0 1-1.039-.328 4.728 4.728 0 0 1-1.121-.67 3.916 3.916 0 0 1-.889-1.094c-.237-.437-.355-.97-.355-1.6 0-.555.136-1.048.41-1.476a4.524 4.524 0 0 1 1.066-1.148 9.123 9.123 0 0 1 1.477-.903c.547-.264 1.089-.51 1.627-.738a99.552 99.552 0 0 0 1.517-.684c.474-.218.862-.455 1.162-.71.256-1.103.552-1.915.889-2.434.337-.52.679-.78 1.025-.78Zm3.145 19.962c.146-.301.314-.63.506-.985.191-.364.396-.729.615-1.094.219-.373.447-.742.684-1.107.246-.365.501-.711.765-1.04.265-.318.529-.546.793-.683.274-.146.529-.218.766-.218.474 0 .825.173 1.053.52.227.346.341.774.341 1.284 0 .119-.009.265-.027.438a13.85 13.85 0 0 1-.041.533c-.009.191-.023.387-.041.588-.009.191-.014.374-.014.547 0 .218.009.428.028.629.027.2.073.378.136.533a.886.886 0 0 0 .274.355.8.8 0 0 0 .465.123c.346 0 .683-.132 1.011-.396.329-.274.629-.593.903-.957.282-.374.524-.752.724-1.135.21-.383.365-.693.465-.93.046-.1.11-.177.192-.232a.547.547 0 0 1 .287-.082.44.44 0 0 1 .369.178c.1.109.15.227.15.355a.471.471 0 0 1-.041.192l-.219.45a9.446 9.446 0 0 1-.437.794c-.173.291-.378.606-.615.943a6.283 6.283 0 0 1-.793.902 4.233 4.233 0 0 1-.93.684 2.106 2.106 0 0 1-1.039.273c-.41 0-.743-.077-.998-.232a1.809 1.809 0 0 1-.602-.629 2.766 2.766 0 0 1-.3-.861 6.698 6.698 0 0 1-.055-1.422l.055-.547a6.19 6.19 0 0 0 .054-.574 5.54 5.54 0 0 0 .028-.547c0-.292-.046-.488-.137-.588-.091-.11-.173-.164-.246-.164-.146 0-.315.087-.506.26a4.937 4.937 0 0 0-.588.656c-.2.273-.41.583-.629.93-.209.337-.41.674-.601 1.011-.183.338-.356.661-.52.971-.155.3-.278.552-.369.752-.182.383-.365.638-.547.766a.924.924 0 0 1-.56.205c-.265 0-.479-.078-.643-.233-.155-.164-.232-.392-.232-.683 0-.064.009-.187.027-.37.018-.19.041-.414.068-.67.028-.264.055-.546.082-.847l.082-.889c.028-.3.05-.578.069-.834a7.678 7.678 0 0 0 0-1.299c-.019-.21-.055-.337-.11-.382-.082.027-.228.2-.437.52-.21.31-.479.86-.807 1.654a.507.507 0 0 1-.205.232.55.55 0 0 1-.287.082.474.474 0 0 1-.369-.15.563.563 0 0 1-.096-.575c.41-.975.793-1.69 1.149-2.146.364-.465.724-.697 1.08-.697a.86.86 0 0 1 .533.164c.146.1.26.237.342.41.091.173.155.364.191.574.046.21.068.424.068.643 0 .164-.013.419-.041.765-.018.347-.045.72-.082 1.121l-.109 1.176c-.027.392-.055.72-.082.985Zm11.662-9.502c0 .346-.123.642-.369.888a1.19 1.19 0 0 1-.875.356c-.346 0-.643-.119-.889-.356a1.234 1.234 0 0 1-.355-.888c0-.174.032-.333.095-.479.064-.155.151-.287.26-.396.119-.119.251-.21.397-.274a1.28 1.28 0 0 1 .97 0 1.1 1.1 0 0 1 .397.274c.118.109.21.241.273.396.064.146.096.305.096.479Zm-2.215 8.011c0-1.312.082-2.62.246-3.924a.571.571 0 0 1 .164-.328.52.52 0 0 1 .383-.15c.137 0 .251.055.342.164.091.1.137.219.137.355 0 .055-.014.22-.041.493a41.09 41.09 0 0 1-.082.984c-.028.374-.055.775-.082 1.203-.019.42-.028.807-.028 1.162 0 .483.046.875.137 1.176.1.292.223.52.369.684.155.164.315.273.479.328.173.055.337.082.492.082.255 0 .519-.091.793-.274.273-.182.551-.437.834-.765a9.46 9.46 0 0 0 .875-1.176c.291-.465.579-.98.861-1.545a.463.463 0 0 1 .192-.205.481.481 0 0 1 .273-.082.44.44 0 0 1 .355.164c.101.11.151.228.151.355a.456.456 0 0 1-.055.233c-.109.21-.246.465-.41.765a13.104 13.104 0 0 1-1.258 1.887c-.246.31-.51.593-.793.848a4.25 4.25 0 0 1-.888.601c-.31.155-.625.233-.944.233-.41 0-.77-.087-1.08-.26a2.521 2.521 0 0 1-.793-.697 3.207 3.207 0 0 1-.478-1.026 5.25 5.25 0 0 1-.151-1.285Zm1.449-8.011a.429.429 0 0 0-.15-.329.427.427 0 0 0-.328-.15.427.427 0 0 0-.328.15.448.448 0 0 0-.137.329c0 .127.046.237.137.328.091.09.2.136.328.136a.447.447 0 0 0 .328-.136c.1-.091.15-.2.15-.328Z" fill="url(#a)"/><defs><linearGradient id="a" x1="193.5" y1="37" x2="-11.5" y2="37" gradientUnits="userSpaceOnUse"><stop stop-color="#599BC0"/><stop offset="1" stop-color="#DA2286"/></linearGradient></defs></svg>